HIERARCHY
ROOT Hip
{
	OFFSET 0.000000 0.000000 0.000000 
	CHANNELS 6 Xposition Yposition Zposition Xrotation Yrotation Zrotation
	JOINT LowerSpine
	{
		OFFSET 0.000000 8.345300 -5.129200 
		CHANNELS 3 Xrotation Yrotation Zrotation
		JOINT MiddleSpine
		{
			OFFSET 10.856900 0.000000 0.000000 
			CHANNELS 3 Xrotation Yrotation Zrotation
			JOINT Chest
			{
				OFFSET 15.298400 0.000000 0.000000 
				CHANNELS 3 Xrotation Yrotation Zrotation
				JOINT Neck
				{
					OFFSET 25.661800 -0.598600 0.000000 
					CHANNELS 3 Xrotation Yrotation Zrotation
					JOINT Head
					{
						OFFSET 8.882900 0.000000 0.000000 
						CHANNELS 3 Xrotation Yrotation Zrotation
						End Site
						{
							OFFSET 19.739901 0.000000 0.000000 
						}
					}
				}
				JOINT RClavicle
				{
					OFFSET 23.687799 0.000000 3.158400 
					CHANNELS 3 Xrotation Yrotation Zrotation
					JOINT RShoulder
					{
						OFFSET -15.594500 -3.948000 0.987000 
						CHANNELS 3 Xrotation Yrotation Zrotation
						JOINT RForearm
						{
							OFFSET -31.337000 0.000000 0.197400 
							CHANNELS 3 Xrotation Yrotation Zrotation
							JOINT RHand
							{
								OFFSET -26.402100 0.000000 0.000000 
								CHANNELS 3 Xrotation Yrotation Zrotation
								End Site
								{
									OFFSET -15.791900 -0.987000 0.000000 
								}
							}
						}
					}
				}
				JOINT LClavicle
				{
					OFFSET 23.687799 0.000000 -3.158400 
					CHANNELS 3 Xrotation Yrotation Zrotation
					JOINT LShoulder
					{
						OFFSET -15.594500 -3.948000 -0.987000 
						CHANNELS 3 Xrotation Yrotation Zrotation
						JOINT LForearm
						{
							OFFSET -31.337000 0.000000 -0.197400 
							CHANNELS 3 Xrotation Yrotation Zrotation
							JOINT LHand
							{
								OFFSET -26.402100 0.000000 0.000000 
								CHANNELS 3 Xrotation Yrotation Zrotation
								End Site
								{
									OFFSET -15.791900 -0.987000 0.000000 
								}
							}
						}
					}
				}
			}
		}
	}
	JOINT RThigh
	{
		OFFSET -8.882900 0.448100 0.000000 
		CHANNELS 3 Xrotation Yrotation Zrotation
		JOINT RShin
		{
			OFFSET 43.131599 0.000000 -0.493500 
			CHANNELS 3 Xrotation Yrotation Zrotation
			JOINT RFoot
			{
				OFFSET 0.000000 -44.725601 -0.404700 
				CHANNELS 3 Xrotation Yrotation Zrotation
				JOINT RToe
				{
					OFFSET 0.000000 -3.933200 12.195300 
					CHANNELS 3 Xrotation Yrotation Zrotation
					End Site
					{
						OFFSET 6.772500 0.000000 0.000000 
					}
				}
			}
		}
	}
	JOINT LThigh
	{
		OFFSET 8.882900 0.448100 0.000000 
		CHANNELS 3 Xrotation Yrotation Zrotation
		JOINT LShin
		{
			OFFSET 43.131599 0.000000 0.493500 
			CHANNELS 3 Xrotation Yrotation Zrotation
			JOINT LFoot
			{
				OFFSET 0.000000 -44.725601 0.404700 
				CHANNELS 3 Xrotation Yrotation Zrotation
				JOINT LToe
				{
					OFFSET 0.000000 -3.933200 -12.195300 
					CHANNELS 3 Xrotation Yrotation Zrotation
					End Site
					{
						OFFSET 6.772500 0.000000 0.000000 
					}
				}
			}
		}
	}
}
MOTION
Frames: 15
Frame Time: 0.016949
-25.499779 90.229828 -7.311243 3.035176 -9.046222 -1.270381 -89.999992 -90.000000 0.000000 0.921926 0.052724 -2.234420 3.075861 0.035702 -7.449330 0.000000 0.000000 0.000000 0.000000 0.000000 0.000000 90.001259 -0.431909 -84.196678 -21.040600 60.034801 82.943604 2.767945 27.191259 -6.593890 0.000000 0.000000 0.000000 -89.996979 0.328685 -85.584244 31.859711 -35.645962 94.842407 -1.084898 -12.836850 -6.013286 0.000000 0.000000 0.000000 -11.601890 84.175262 -95.872276 89.720467 29.214581 90.042267 -13.721670 -4.809197 -3.046047 179.318497 90.000000 0.000000 168.407700 81.317093 83.449348 -89.626251 -37.029221 90.086060 12.448820 0.959609 -0.585558 189.558197 -90.000000 0.000000 
-25.770859 89.561348 -7.466287 3.150911 -4.240781 -1.842378 -89.999992 -90.000000 0.000000 0.890591 0.055268 -2.100227 2.972126 0.057116 -7.002334 0.000000 0.000000 0.000000 0.000000 0.000000 0.000000 90.001038 -0.427627 -84.254349 -20.003620 61.574490 82.103973 2.992210 28.889950 -6.699329 0.000000 0.000000 0.000000 -89.996094 0.293903 -86.051590 31.982889 -35.569229 95.276917 -1.157358 -13.505710 -6.029797 0.000000 0.000000 0.000000 -15.707860 83.801102 -92.557030 89.692490 31.668921 90.053947 -15.726020 -7.131906 -4.780135 179.302002 90.000000 0.000000 173.266495 81.620239 76.501167 -89.585999 -39.978630 90.108109 13.887950 3.648561 -2.354146 189.242493 -90.000000 0.000000 
-26.188541 88.833870 -7.823530 3.540189 -0.319659 -2.713471 -89.999992 -90.000000 0.000000 0.887898 0.032579 -1.977640 2.960233 -0.010557 -6.592466 0.000000 0.000000 0.000000 0.000000 0.000000 0.000000 90.000526 -0.417862 -84.385696 -18.859570 63.227180 80.721458 3.378983 31.692270 -6.894474 0.000000 0.000000 0.000000 -89.995712 0.273513 -86.325546 32.110981 -35.470230 95.424797 -1.384850 -15.580580 -6.086932 0.000000 0.000000 0.000000 -22.024441 82.977242 -87.280518 89.667351 33.776440 90.065392 -17.617960 -9.143851 -6.435612 179.551697 90.000000 0.000000 -179.640198 81.668480 66.451942 -89.531403 -43.626209 90.140793 14.934840 4.429685 -2.868175 189.147995 -90.000000 0.000000 
-26.484020 88.250694 -8.246574 4.148878 2.908398 -3.538310 -89.999992 -90.000000 0.000000 0.918001 -0.013727 -1.883691 3.054742 -0.162841 -6.276495 0.000000 0.000000 0.000000 0.000000 0.000000 0.000000 89.999817 -0.403367 -84.580544 -19.461090 62.645130 81.193581 3.869638 35.016499 -7.164358 0.000000 0.000000 0.000000 -89.995621 0.267694 -86.403618 31.988440 -35.196609 95.120590 -1.687200 -18.273649 -6.174988 0.000000 0.000000 0.000000 -23.723770 81.149879 -86.817970 89.644608 35.605080 90.076469 -18.919491 -9.698531 -7.059258 179.770401 90.000000 0.000000 -173.987106 81.047989 57.286491 -89.466080 -47.497261 90.183487 14.238120 3.285734 -2.021757 190.457306 -90.000000 0.000000 
-26.587601 87.804916 -8.573417 4.701961 5.859384 -4.176779 -89.999992 -90.000000 0.000000 0.974993 -0.076733 -1.826907 3.236994 -0.376094 -6.082963 0.000000 0.000000 0.000000 0.000000 0.000000 0.000000 89.999023 -0.385117 -84.825897 -21.715269 60.389591 83.365311 4.372005 38.159569 -7.463912 0.000000 0.000000 0.000000 -89.995758 0.276335 -86.287529 30.932840 -34.376991 94.144608 -2.213597 -22.763849 -6.359640 0.000000 0.000000 0.000000 -22.042589 78.726303 -89.611252 89.622841 37.285309 90.087677 -19.625469 -9.128568 -6.835543 179.642197 90.000000 0.000000 -171.301407 80.098129 51.165039 -89.395798 -51.127140 90.233109 12.086410 1.296987 -0.732796 192.870300 -90.000000 0.000000 
-26.595779 87.387337 -8.733860 4.957454 8.258807 -4.649727 -89.999992 -90.000000 0.000000 1.048045 -0.146733 -1.806542 3.471882 -0.616692 -6.009799 0.000000 0.000000 0.000000 0.000000 0.000000 0.000000 89.998169 -0.363942 -85.110573 -24.177999 59.037369 85.082748 4.840394 40.863441 -7.762002 0.000000 0.000000 0.000000 -89.996048 0.291786 -86.079964 28.691669 -32.414421 92.468224 -3.149816 -30.051430 -6.776878 0.000000 0.000000 0.000000 -20.917419 76.977509 -91.581223 89.598969 39.050190 90.100632 -20.152599 -8.814590 -6.831906 179.182693 90.000000 0.000000 -169.762405 79.042374 46.485729 -89.319183 -54.541309 90.290703 8.756151 -0.668173 0.303353 196.480698 -90.000000 0.000000 
-26.609159 86.973366 -8.812204 5.095650 10.213580 -5.102467 -89.999992 -90.000000 0.000000 1.125899 -0.214114 -1.815291 3.722764 -0.851139 -6.033408 0.000000 0.000000 0.000000 0.000000 0.000000 0.000000 89.997337 -0.340403 -85.426941 -26.758270 59.058800 86.134003 5.310650 43.371132 -8.077455 0.000000 0.000000 0.000000 -89.996483 0.310380 -85.830132 26.349091 -28.570770 90.910156 -4.485758 -38.835930 -7.534729 0.000000 0.000000 0.000000 -21.387671 76.257240 -91.876991 89.573288 40.860020 90.115288 -20.677900 -9.259773 -7.448125 178.642197 90.000000 0.000000 -167.293594 78.383743 40.817451 -89.232727 -57.823818 90.359192 4.718622 -1.841673 0.718857 200.445206 -90.000000 0.000000 
-26.680840 86.656700 -8.899048 5.352123 12.178380 -5.660220 -89.999992 -90.000000 0.000000 1.199477 -0.271158 -1.843406 3.960176 -1.052275 -6.122044 0.000000 0.000000 0.000000 0.000000 0.000000 0.000000 89.996597 -0.314663 -85.772850 -29.532021 59.501881 86.906487 5.885925 46.177601 -8.482755 0.000000 0.000000 0.000000 -89.997063 0.331221 -85.550163 24.841690 -23.238350 90.046608 -6.173349 -47.479889 -8.692397 0.000000 0.000000 0.000000 -22.889231 75.914581 -91.009163 89.554131 42.151871 90.126663 -21.144930 -9.598565 -7.922844 178.392105 90.000000 0.000000 -162.913696 78.442787 33.412560 -89.154663 -60.359798 90.423599 1.865607 -1.872688 0.642525 201.440002 -90.000000 0.000000 
-26.747118 86.502419 -8.989090 5.692698 14.438920 -6.286020 -89.999992 -90.000000 0.000000 1.263227 -0.312097 -1.882332 4.166393 -1.199742 -6.247557 0.000000 0.000000 0.000000 0.000000 0.000000 0.000000 89.995949 -0.285974 -86.158241 -32.406719 59.905762 87.639053 6.673522 49.599609 -9.067292 0.000000 0.000000 0.000000 -89.997810 0.354408 -85.238518 24.320650 -18.456730 89.419487 -8.200464 -55.076050 -10.277480 0.000000 0.000000 0.000000 -24.309240 75.598396 -89.864052 89.546783 42.633862 90.131119 -21.516769 -8.577374 -7.181711 178.485794 90.000000 0.000000 -157.565796 78.761177 25.563129 -89.105133 -61.790379 90.465492 1.060655 -1.530103 0.505974 197.624802 -90.000000 0.000000 
-26.722198 86.443542 -9.077333 6.143292 17.137541 -6.863369 -89.999992 -90.000000 0.000000 1.315859 -0.332099 -1.926921 4.337893 -1.276913 -6.392813 0.000000 0.000000 0.000000 0.000000 0.000000 0.000000 89.995438 -0.252644 -86.605927 -35.239159 59.668308 88.490532 7.763165 53.645439 -9.922047 0.000000 0.000000 0.000000 -89.998734 0.378506 -84.914627 24.750931 -15.617630 88.825897 -10.620920 -61.447460 -12.339250 0.000000 0.000000 0.000000 -24.721201 75.221992 -89.496178 89.547012 42.618980 90.130981 -21.961510 -6.554430 -5.518926 178.690094 90.000000 0.000000 -153.693100 78.849632 19.328199 -89.071869 -62.682892 90.494003 0.922521 -1.221768 0.395150 191.196396 -90.000000 0.000000 
-26.636478 86.398064 -9.159977 6.740112 19.948549 -7.369407 -89.999992 -90.000000 0.000000 1.360278 -0.326716 -1.975879 4.485121 -1.269228 -6.553788 0.000000 0.000000 0.000000 0.000000 0.000000 0.000000 89.995163 -0.213143 -87.136520 -38.215420 57.953701 89.836037 9.192069 57.973450 -11.104860 0.000000 0.000000 0.000000 -89.999634 0.399366 -84.634163 25.672319 -14.056130 88.432991 -14.011760 -67.382050 -15.401860 0.000000 0.000000 0.000000 -23.919220 74.476486 -90.351807 89.548683 42.509529 90.129967 -22.469770 -5.152050 -4.314995 178.841599 90.000000 0.000000 -152.165497 78.700447 15.359680 -89.040329 -63.483089 90.521317 0.341536 -0.717276 0.229278 185.445496 -90.000000 0.000000 
-26.538557 86.389282 -9.196721 7.344195 22.450720 -7.836580 -89.999992 -90.000000 0.000000 1.402369 -0.292910 -2.030496 4.628290 -1.167484 -6.735745 0.000000 0.000000 0.000000 0.000000 0.000000 0.000000 89.995300 -0.167892 -87.744278 -41.350849 54.874359 91.539177 10.888770 62.021591 -12.575150 0.000000 0.000000 0.000000 -90.000214 0.411406 -84.472267 26.536329 -12.682590 88.098686 -20.250811 -73.664040 -21.293369 0.000000 0.000000 0.000000 -22.022070 72.888397 -92.209259 89.550743 42.374901 90.128723 -22.708679 -4.253683 -3.498979 178.757706 90.000000 0.000000 -151.330994 78.406387 12.384840 -89.019493 -63.988621 90.539490 -0.332701 -0.229776 0.074781 181.862793 -90.000000 0.000000 
-26.395338 86.477905 -9.145265 7.772606 24.617941 -8.211176 -89.999992 -90.000000 0.000000 1.448833 -0.231011 -2.092306 4.789965 -0.973939 -6.944967 0.000000 0.000000 0.000000 0.000000 0.000000 0.000000 89.995956 -0.120297 -88.383614 -44.605919 51.784649 93.122528 12.728280 65.439774 -14.225450 0.000000 0.000000 0.000000 -90.000130 0.409854 -84.493134 27.267611 -11.391160 87.813148 -34.242531 -79.724617 -34.931969 0.000000 0.000000 0.000000 -19.554420 70.569420 -94.247017 89.556412 41.999790 90.125290 -22.686449 -2.569240 -1.969102 178.507202 90.000000 0.000000 -149.543396 78.111801 9.082307 -89.024269 -63.874619 90.535309 -0.568947 0.030063 -0.006012 180.327805 -90.000000 0.000000 
-26.210117 86.671936 -8.991808 7.966241 26.353910 -8.515928 -89.999992 -90.000000 0.000000 1.504766 -0.145551 -2.160919 4.986927 -0.704552 -7.180602 0.000000 0.000000 0.000000 0.000000 0.000000 0.000000 89.997063 -0.075870 -88.980507 -48.304070 49.382301 94.821938 14.658560 68.250793 -16.000799 0.000000 0.000000 0.000000 -89.999313 0.392252 -84.729828 28.078650 -10.577880 87.612091 -69.623581 -83.759422 -69.989113 0.000000 0.000000 0.000000 -18.316019 69.227150 -94.694946 89.567131 41.278419 90.118896 -22.597879 -0.981010 -0.560374 178.357193 90.000000 0.000000 -146.697098 77.761040 5.262402 -89.057083 -63.064159 90.506767 -0.527474 -0.011235 0.006412 180.000793 -90.000000 0.000000 
-26.055096 86.954567 -8.771751 8.088119 27.601400 -8.922908 -89.999992 -90.000000 0.000000 1.571664 -0.043592 -2.233395 5.223605 -0.382981 -7.432283 0.000000 0.000000 0.000000 0.000000 0.000000 0.000000 89.998299 -0.039787 -89.465492 -52.175091 47.379189 96.568443 17.034760 70.941780 -18.228571 0.000000 0.000000 0.000000 -89.997963 0.358693 -85.180931 29.238710 -10.599630 87.527840 -119.414001 -83.260536 -119.499199 0.000000 0.000000 0.000000 -19.940050 70.485077 -92.221046 89.582657 40.207958 90.109871 -22.267139 -1.645679 -1.140404 178.258804 90.000000 0.000000 -143.601700 77.129562 1.614096 -89.112801 -61.578030 90.458946 -0.462447 -0.411575 0.132344 180.001297 -90.000000 0.000000 
